<svg width="1080" height="1080" viewBox="0 0 1080 1080" fill="none" xmlns="http://www.w3.org/2000/svg">
<g clip-path="url(#clip0_129_20)">
<rect width="1080" height="1080" fill="#ED184F"/>
<path d="M537.724 794.84C499.417 794.84 468.183 788.652 444.02 776.276C419.857 763.9 401.293 747.988 388.328 728.54C375.363 709.092 366.523 688.465 361.808 666.66C357.093 644.855 354.736 624.817 354.736 606.548V305.104C354.736 298.032 357.977 294.496 364.46 294.496H371.532C395.105 294.496 412.491 300.389 423.688 312.176C435.475 323.963 441.368 343.705 441.368 371.404V589.752C441.368 626.291 448.44 656.052 462.584 679.036C476.728 702.02 501.775 713.512 537.724 713.512C574.263 713.512 599.899 702.02 614.632 679.036C629.365 655.463 636.732 625.701 636.732 589.752V305.104C636.732 298.032 640.268 294.496 647.34 294.496H654.412C677.396 294.496 694.781 300.389 706.568 312.176C718.355 323.963 724.248 343.705 724.248 371.404V605.664C724.248 622.755 721.891 642.203 717.176 664.008C712.461 685.224 703.621 705.851 690.656 725.888C677.691 745.925 658.832 762.427 634.08 775.392C609.917 788.357 577.799 794.84 537.724 794.84Z" fill="white"/>
</g>
<defs>
<clipPath id="clip0_129_20">
<rect width="1080" height="1080" fill="white"/>
</clipPath>
</defs>
</svg>
