<svg width="767" height="160" viewBox="0 0 767 160" fill="none" xmlns="http://www.w3.org/2000/svg">
<path d="M58.08 158.8C45.9467 158.8 36.0533 156.84 28.4 152.92C20.7467 149 14.8667 143.96 10.76 137.8C6.65333 131.64 3.85333 125.107 2.36 118.2C0.866667 111.293 0.12 104.947 0.12 99.16V3.67999C0.12 1.43999 1.14667 0.319985 3.2 0.319985H5.44C12.9067 0.319985 18.4133 2.18666 21.96 5.92C25.6933 9.65333 27.56 15.9067 27.56 24.68V93.84C27.56 105.413 29.8 114.84 34.28 122.12C38.76 129.4 46.6933 133.04 58.08 133.04C69.6533 133.04 77.7733 129.4 82.44 122.12C87.1067 114.653 89.44 105.227 89.44 93.84V3.67999C89.44 1.43999 90.56 0.319985 92.8 0.319985H95.04C102.32 0.319985 107.827 2.18666 111.56 5.92C115.293 9.65333 117.16 15.9067 117.16 24.68V98.88C117.16 104.293 116.413 110.453 114.92 117.36C113.427 124.08 110.627 130.613 106.52 136.96C102.413 143.307 96.44 148.533 88.6 152.64C80.9467 156.747 70.7733 158.8 58.08 158.8ZM143.303 23.28C143.303 18.8 144.703 15.16 147.503 12.36C150.489 9.37332 154.129 7.87999 158.423 7.87999C162.716 7.87999 166.263 9.37332 169.063 12.36C172.049 15.16 173.543 18.8 173.543 23.28C173.543 27.5733 172.049 31.2133 169.063 34.2C166.263 37.1867 162.716 38.68 158.423 38.68C154.129 38.68 150.489 37.1867 147.503 34.2C144.703 31.2133 143.303 27.5733 143.303 23.28ZM148.063 156C146.196 156 145.263 154.973 145.263 152.92V54.08C145.263 51.84 146.196 50.72 148.063 50.72H149.463C156.556 50.72 162.063 52.5867 165.983 56.32C169.903 60.0533 171.863 66.12 171.863 74.52V152.92C171.863 154.973 170.836 156 168.783 156H148.063ZM223.51 63.88C226.87 59.4 230.976 55.76 235.83 52.96C240.87 50.16 246.843 48.76 253.75 48.76C270.176 48.76 281.843 54.92 288.75 67.24C292.483 62.2 297.15 57.9067 302.75 54.36C308.35 50.6267 315.07 48.76 322.91 48.76C336.163 48.76 346.523 52.68 353.99 60.52C361.643 68.36 365.47 80.0267 365.47 95.52V152.92C365.47 154.973 364.35 156 362.11 156H341.39C339.523 156 338.59 154.973 338.59 152.92V98.6C338.59 89.2667 336.536 82.64 332.43 78.72C328.51 74.8 323.47 72.84 317.31 72.84C311.15 72.84 305.923 74.8933 301.63 79C297.523 83.1067 295.47 89.7333 295.47 98.88V152.92C295.47 154.973 294.536 156 292.67 156H271.67C269.616 156 268.59 154.973 268.59 152.92V98.6C268.59 89.2667 266.63 82.64 262.71 78.72C258.79 74.8 253.656 72.84 247.31 72.84C240.963 72.84 235.736 74.8933 231.63 79C227.523 83.1067 225.47 89.7333 225.47 98.88V152.92C225.47 154.973 224.443 156 222.39 156H201.11C199.43 156 198.59 154.973 198.59 152.92V54.08C198.59 51.84 199.43 50.72 201.11 50.72H202.51C207.923 50.72 212.403 51.84 215.95 54.08C219.683 56.1333 222.203 59.4 223.51 63.88ZM388.576 23.28C388.576 18.8 389.976 15.16 392.776 12.36C395.763 9.37332 399.403 7.87999 403.696 7.87999C407.99 7.87999 411.536 9.37332 414.336 12.36C417.323 15.16 418.816 18.8 418.816 23.28C418.816 27.5733 417.323 31.2133 414.336 34.2C411.536 37.1867 407.99 38.68 403.696 38.68C399.403 38.68 395.763 37.1867 392.776 34.2C389.976 31.2133 388.576 27.5733 388.576 23.28ZM393.336 156C391.47 156 390.536 154.973 390.536 152.92V54.08C390.536 51.84 391.47 50.72 393.336 50.72H394.736C401.83 50.72 407.336 52.5867 411.256 56.32C415.176 60.0533 417.136 66.12 417.136 74.52V152.92C417.136 154.973 416.11 156 414.056 156H393.336ZM456.183 75.08H437.703C435.65 75.08 434.623 73.96 434.623 71.72V54.08C434.623 51.84 435.65 50.72 437.703 50.72H456.183V16.84C456.183 14.7867 457.116 13.76 458.983 13.76H460.383C467.663 13.76 473.17 15.6267 476.903 19.36C480.823 23.0933 482.783 29.0667 482.783 37.28V50.72H505.463C507.143 50.72 507.983 51.84 507.983 54.08V71.72C507.983 73.96 507.143 75.08 505.463 75.08H482.783V152.92C482.783 154.973 481.85 156 479.983 156H458.983C457.116 156 456.183 154.973 456.183 152.92V75.08ZM552.468 66.12C555.641 60.1467 559.468 56.1333 563.948 54.08C568.428 51.84 574.495 50.72 582.148 50.72H585.228C587.095 50.72 588.028 51.84 588.028 54.08V73.12C588.028 75.36 587.095 76.48 585.228 76.48H577.948C567.681 76.48 560.961 79.0933 557.788 84.32C554.801 89.36 553.308 96.8267 553.308 106.72V152.92C553.308 154.973 552.375 156 550.508 156H529.508C527.828 156 526.988 154.973 526.988 152.92V54.08C526.988 51.84 527.828 50.72 529.508 50.72H530.908C543.041 50.72 550.228 55.8533 552.468 66.12ZM682.738 142.84C679.005 147.88 674.245 151.8 668.458 154.6C662.671 157.213 656.511 158.52 649.978 158.52C639.525 158.52 630.658 156 623.378 150.96C616.285 145.92 610.871 139.2 607.138 130.8C603.591 122.4 601.818 113.16 601.818 103.08C601.818 92.6267 603.778 83.2933 607.698 75.08C611.618 66.68 617.218 60.0533 624.498 55.2C631.965 50.3467 640.645 47.92 650.538 47.92C658.751 47.92 665.658 49.4133 671.258 52.4C677.045 55.3867 681.618 58.9333 684.978 63.04C686.471 58.7467 688.898 55.6667 692.258 53.8C695.805 51.7467 700.005 50.72 704.858 50.72H706.258C708.311 50.72 709.338 51.84 709.338 54.08V152.92C709.338 154.973 708.311 156 706.258 156H685.538C683.671 156 682.738 154.973 682.738 152.92V142.84ZM655.858 133.32C659.405 133.32 663.231 132.573 667.338 131.08C671.631 129.4 675.271 126.413 678.258 122.12C681.245 117.827 682.738 111.48 682.738 103.08C682.738 94.68 681.245 88.4267 678.258 84.32C675.271 80.0267 671.725 77.2267 667.618 75.92C663.511 74.4267 659.685 73.68 656.138 73.68C652.405 73.68 648.391 74.52 644.098 76.2C639.991 77.88 636.445 80.8667 633.458 85.16C630.658 89.4533 629.258 95.4267 629.258 103.08C629.258 111.107 630.751 117.36 633.738 121.84C636.911 126.133 640.551 129.12 644.658 130.8C648.765 132.48 652.498 133.32 655.858 133.32ZM749.068 124.64C753.734 124.64 757.748 126.413 761.108 129.96C764.468 133.32 766.148 137.427 766.148 142.28C766.148 146.947 764.468 151.053 761.108 154.6C757.748 157.96 753.734 159.64 749.068 159.64C744.401 159.64 740.388 157.96 737.028 154.6C733.668 151.053 731.988 146.947 731.988 142.28C731.988 137.427 733.668 133.32 737.028 129.96C740.388 126.413 744.401 124.64 749.068 124.64Z" fill="#ED184F"/>
</svg>
